<svg version="1" xmlns="http://www.w3.org/2000/svg" width="2133.333" height="2133.333" viewBox="0 0 1600 1600"><path d="M73 121.5c-22.4 4.2-41.6 22.2-47.6 44.5-2.7 10.1-2.3 24.5 1 34.6 2.9 9.1 8.5 18.3 14.8 24.7 2.4 2.3 12.9 10.3 23.3 17.8 58.8 41.9 115.5 79.1 176 115.4 111.2 66.8 181.4 99.6 247.9 116 34.1 8.4 57 11 88.9 10.2 58.6-1.5 111.8-20.5 177.2-63.4 20.8-13.7 35.9-24.6 82-59.3 44.2-33.3 59.6-44.4 84.1-60.8C989 255.8 1032 239 1068.2 244c55.6 7.5 165.5 54.7 259.7 111.4 54.8 33 113 72.2 167.5 112.8 13.3 10 20.5 13.9 29.3 16.2 7.9 2.1 23.7 2.1 31.7 0 18.8-4.9 35.1-20.1 41.6-39 1.6-4.6 2-8.4 2-20 0-17.3-1.7-23.8-9.1-34.8-6.3-9.5-9.3-12.1-35.7-30.9-70.2-49.9-146.6-98.7-222.2-141.9-105.3-60.2-181.8-89.2-252.5-95.9-15.8-1.5-50.3-.6-64 1.6-33 5.3-62.5 15-95.2 31.4-36.2 18.1-59.9 33.9-128.8 85.6-79.6 59.9-112.7 82-151 101-36.5 18.1-60.9 23.9-85.7 20.5-52.4-7.1-155.5-50.5-246.8-103.8-48.7-28.4-115.9-73.1-171.2-113.8-20.9-15.4-28.8-20-37.8-22.2-7.9-1.9-19.1-2.2-27-.7zM74.5 606c-12.9 2.3-26 9.4-34.7 18.9-21.6 23.3-21.6 60.3 0 83.2 6.2 6.7 29.2 23.6 67.7 50 83.5 57.1 183.6 117.5 250 150.7 87.7 43.8 156.5 62.8 220 60.9 44.8-1.4 82.3-11.7 129.5-35.8 34.1-17.4 56-32 122.7-82.1 82.6-62 115.7-84.1 153.8-102.8 36-17.7 60.5-23.4 85.7-20.1 53.9 7.3 164.4 54.7 257.3 110.6 52.4 31.5 107.6 68.4 160.2 107.2 28.9 21.3 35.6 24.3 53.8 24.3 20.8 0 38.6-9.3 50.1-26.1 7.8-11.5 9.4-17.4 9.4-34.5 0-11.4-.4-15.5-2-20.5-4.8-15.6-11.7-23.1-38.2-42-110-78.7-243.3-159.2-324.1-195.8-44.2-20-88.1-34.6-123.7-41-37.9-6.8-77.5-6.9-110.5-.1-24 4.9-51.1 14.4-77 27-37 18-64.1 36.1-141.7 94.6-37.9 28.6-59.5 44.2-81.8 58.9-54.6 36-95.6 54.3-126 56.2-23.1 1.4-61.2-8.5-113-29.2C361 778.1 255.4 716.2 132 625c-15.5-11.5-21.2-14.8-30-17.4-6.7-2-20.7-2.8-27.5-1.6zM71.2 1091.5c-11.4 2.5-20.8 7.8-29.7 16.9-12.4 12.5-17.8 25.5-17.8 43.1-.1 15.8 5.2 29.8 15.6 41 14.6 16.1 127.1 91.5 209.2 140.5 107.2 63.9 175.2 95.4 240.8 111.5 87.9 21.7 160 9.9 243.3-39.8 27.2-16.2 51.8-33.6 114.9-81.3 85-64.3 138.4-95.9 180.5-107.1 9.4-2.5 12.2-2.8 26.5-2.8 13 0 18.1.5 27 2.4 61.5 13 165.3 59.6 255 114.4 44.4 27.1 104.6 67.5 142.5 95.7 26 19.3 33.7 24.3 41.5 26.9 9.5 3.2 24.4 3.9 33.9 1.7 19.3-4.6 35.5-18.5 42.6-36.8 2.9-7.4 3-8.5 3-22.7 0-13.2-.3-15.8-2.3-21.4-5.9-16.1-11.7-22.3-40.2-42.6-115.2-82.3-255.3-165.9-334.9-200-49.4-21.1-94.2-34-134.1-38.6-18.4-2.1-49-2.2-66 0-46.1 5.7-90.9 23.1-142.5 55.3-19.4 12.1-42.2 28.4-84.5 60.2-49.1 37-70.8 52.7-95.7 69.1-43.8 28.9-80.8 47-109.8 53.5-11.8 2.7-30.6 2.3-46-.9-60.3-12.6-160.1-56.7-248-109.5-53.4-32.1-113.9-72.9-167.5-113-6-4.6-13.7-9.6-17-11.1-12-5.7-27.1-7.4-40.3-4.6z"/></svg>